<svg xmlns="http://www.w3.org/2000/svg" viewBox="0 0 64 64" fill="none">
  <defs>
    <linearGradient id="bg" x1="10" x2="54" y1="6" y2="58" gradientUnits="userSpaceOnUse">
      <stop stop-color="#0f172a" />
      <stop offset="1" stop-color="#052e2b" />
    </linearGradient>
    <linearGradient id="dna" x1="16" x2="48" y1="14" y2="50" gradientUnits="userSpaceOnUse">
      <stop stop-color="#99f6e4" />
      <stop offset="1" stop-color="#34d399" />
    </linearGradient>
  </defs>
  <rect width="64" height="64" rx="18" fill="url(#bg)" />
  <rect x="1" y="1" width="62" height="62" rx="17" stroke="#ecfeff" stroke-opacity="0.12" />
  <g transform="translate(8 8) scale(2)" stroke="url(#dna)" stroke-width="2" stroke-linecap="round" stroke-linejoin="round">
    <path d="m10 16 1.5 1.5" />
    <path d="m14 8-1.5-1.5" />
    <path d="M15 2c-1.798 1.998-2.518 3.995-2.807 5.993" />
    <path d="m16.5 10.5 1 1" />
    <path d="m17 6-2.891-2.891" />
    <path d="M2 15c6.667-6 13.333 0 20-6" />
    <path d="m20 9 .891.891" />
    <path d="M3.109 14.109 4 15" />
    <path d="m6.5 12.5 1 1" />
    <path d="m7 18 2.891 2.891" />
    <path d="M9 22c1.798-1.998 2.518-3.995 2.807-5.993" />
  </g>
</svg>
